<svg width="507" height="161" viewBox="0 0 507 161" fill="none" xmlns="http://www.w3.org/2000/svg">
<path d="M41.344 134.536C34.432 134.536 28.2027 132.957 22.656 129.8C17.1947 126.557 12.8853 122.205 9.728 116.744C6.57067 111.197 4.992 104.968 4.992 98.056C4.992 91.144 6.57067 84.9573 9.728 79.496C12.8853 74.0347 17.1947 69.7253 22.656 66.568C28.2027 63.4107 34.432 61.832 41.344 61.832C46.2933 61.832 50.9013 62.728 55.168 64.52C59.4347 66.2267 63.104 68.616 66.176 71.688C69.3333 74.6747 71.5947 78.2587 72.96 82.44L58.24 88.84C56.96 85.3413 54.784 82.5253 51.712 80.392C48.7253 78.2587 45.2693 77.192 41.344 77.192C37.6747 77.192 34.3893 78.088 31.488 79.88C28.672 81.672 26.4533 84.1467 24.832 87.304C23.2107 90.4613 22.4 94.088 22.4 98.184C22.4 102.28 23.2107 105.907 24.832 109.064C26.4533 112.221 28.672 114.696 31.488 116.488C34.3893 118.28 37.6747 119.176 41.344 119.176C45.3547 119.176 48.8533 118.109 51.84 115.976C54.8267 113.843 56.96 110.984 58.24 107.4L72.96 114.056C71.5947 117.981 69.376 121.523 66.304 124.68C63.232 127.752 59.5627 130.184 55.296 131.976C51.0293 133.683 46.3787 134.536 41.344 134.536Z" fill="white"/>
<path d="M110.856 134.536C104.029 134.536 97.8 132.957 92.168 129.8C86.6213 126.643 82.184 122.333 78.856 116.872C75.6133 111.411 73.992 105.181 73.992 98.184C73.992 91.1867 75.6133 84.9573 78.856 79.496C82.184 74.0347 86.6213 69.7253 92.168 66.568C97.7147 63.4107 103.944 61.832 110.856 61.832C117.683 61.832 123.869 63.4107 129.416 66.568C134.963 69.7253 139.357 74.0347 142.6 79.496C145.928 84.872 147.592 91.1013 147.592 98.184C147.592 105.181 145.928 111.411 142.6 116.872C139.272 122.333 134.835 126.643 129.288 129.8C123.741 132.957 117.597 134.536 110.856 134.536ZM110.856 119.176C114.611 119.176 117.896 118.28 120.712 116.488C123.613 114.696 125.875 112.221 127.496 109.064C129.203 105.821 130.056 102.195 130.056 98.184C130.056 94.088 129.203 90.504 127.496 87.432C125.875 84.2747 123.613 81.8 120.712 80.008C117.896 78.1307 114.611 77.192 110.856 77.192C107.016 77.192 103.645 78.1307 100.744 80.008C97.8427 81.8 95.5387 84.2747 93.832 87.432C92.2107 90.504 91.4 94.088 91.4 98.184C91.4 102.195 92.2107 105.821 93.832 109.064C95.5387 112.221 97.8427 114.696 100.744 116.488C103.645 118.28 107.016 119.176 110.856 119.176Z" fill="white"/>
<path d="M336.344 134.536C329.432 134.536 323.203 132.957 317.656 129.8C312.195 126.557 307.885 122.205 304.728 116.744C301.571 111.197 299.992 104.968 299.992 98.056C299.992 91.144 301.571 84.9573 304.728 79.496C307.885 74.0347 312.195 69.7253 317.656 66.568C323.203 63.4107 329.432 61.832 336.344 61.832C341.293 61.832 345.901 62.728 350.168 64.52C354.435 66.2267 358.104 68.616 361.176 71.688C364.333 74.6747 366.595 78.2587 367.96 82.44L353.24 88.84C351.96 85.3413 349.784 82.5253 346.712 80.392C343.725 78.2587 340.269 77.192 336.344 77.192C332.675 77.192 329.389 78.088 326.488 79.88C323.672 81.672 321.453 84.1467 319.832 87.304C318.211 90.4613 317.4 94.088 317.4 98.184C317.4 102.28 318.211 105.907 319.832 109.064C321.453 112.221 323.672 114.696 326.488 116.488C329.389 118.28 332.675 119.176 336.344 119.176C340.355 119.176 343.853 118.109 346.84 115.976C349.827 113.843 351.96 110.984 353.24 107.4L367.96 114.056C366.595 117.981 364.376 121.523 361.304 124.68C358.232 127.752 354.563 130.184 350.296 131.976C346.029 133.683 341.379 134.536 336.344 134.536Z" fill="#F7669D"/>
<path d="M404.856 134.536C398.029 134.536 391.8 132.957 386.168 129.8C380.621 126.643 376.184 122.333 372.856 116.872C369.613 111.411 367.992 105.181 367.992 98.184C367.992 91.1867 369.613 84.9573 372.856 79.496C376.184 74.0347 380.621 69.7253 386.168 66.568C391.715 63.4107 397.944 61.832 404.856 61.832C411.683 61.832 417.869 63.4107 423.416 66.568C428.963 69.7253 433.357 74.0347 436.6 79.496C439.928 84.872 441.592 91.1013 441.592 98.184C441.592 105.181 439.928 111.411 436.6 116.872C433.272 122.333 428.835 126.643 423.288 129.8C417.741 132.957 411.597 134.536 404.856 134.536ZM404.856 119.176C408.611 119.176 411.896 118.28 414.712 116.488C417.613 114.696 419.875 112.221 421.496 109.064C423.203 105.821 424.056 102.195 424.056 98.184C424.056 94.088 423.203 90.504 421.496 87.432C419.875 84.2747 417.613 81.8 414.712 80.008C411.896 78.1307 408.611 77.192 404.856 77.192C401.016 77.192 397.645 78.1307 394.744 80.008C391.843 81.8 389.539 84.2747 387.832 87.432C386.211 90.504 385.4 94.088 385.4 98.184C385.4 102.195 386.211 105.821 387.832 109.064C389.539 112.221 391.843 114.696 394.744 116.488C397.645 118.28 401.016 119.176 404.856 119.176Z" fill="#F7669D"/>
<path d="M444.808 133V63.368H460.552V77.064L459.272 74.632C460.893 70.4507 463.539 67.2933 467.208 65.16C470.963 62.9413 475.315 61.832 480.264 61.832C485.384 61.832 489.907 62.9413 493.832 65.16C497.843 67.3787 500.957 70.4933 503.176 74.504C505.395 78.4293 506.504 82.9947 506.504 88.2V133H489.736V92.168C489.736 89.096 489.139 86.4507 487.944 84.232C486.749 82.0133 485.085 80.3067 482.952 79.112C480.904 77.832 478.472 77.192 475.656 77.192C472.925 77.192 470.493 77.832 468.36 79.112C466.227 80.3067 464.563 82.0133 463.368 84.232C462.173 86.4507 461.576 89.096 461.576 92.168V133H444.808Z" fill="#F7669D"/>
<path d="M186.192 134.536C179.451 134.536 173.435 132.957 168.144 129.8C162.853 126.557 158.672 122.163 155.6 116.616C152.528 111.069 150.992 104.925 150.992 98.184C150.992 91.3573 152.528 85.2133 155.6 79.752C158.672 74.2907 162.853 69.9387 168.144 66.696C173.52 63.4533 179.493 61.832 186.064 61.832C191.355 61.832 196.048 62.8987 200.144 65.032C204.325 67.08 207.611 69.9813 210 73.736L207.44 77.192V36.104H224.208V133H208.336V119.56L210.128 122.888C207.739 126.643 204.411 129.544 200.144 131.592C195.877 133.555 191.227 134.536 186.192 134.536ZM187.984 119.176C191.824 119.176 195.195 118.28 198.096 116.488C200.997 114.696 203.259 112.221 204.88 109.064C206.587 105.907 207.44 102.28 207.44 98.184C207.44 94.1733 206.587 90.5893 204.88 87.432C203.259 84.1893 200.997 81.672 198.096 79.88C195.195 78.088 191.824 77.192 187.984 77.192C184.229 77.192 180.859 78.1307 177.872 80.008C174.885 81.8 172.539 84.2747 170.832 87.432C169.211 90.504 168.4 94.088 168.4 98.184C168.4 102.28 169.211 105.907 170.832 109.064C172.539 112.221 174.885 114.696 177.872 116.488C180.859 118.28 184.229 119.176 187.984 119.176Z" fill="white"/>
<path d="M263.832 134.536C256.664 134.536 250.392 132.915 245.016 129.672C239.64 126.429 235.459 122.035 232.472 116.488C229.485 110.941 227.992 104.797 227.992 98.056C227.992 91.0587 229.485 84.872 232.472 79.496C235.544 74.0347 239.683 69.7253 244.888 66.568C250.179 63.4107 256.067 61.832 262.552 61.832C268.013 61.832 272.792 62.728 276.888 64.52C281.069 66.312 284.611 68.7867 287.512 71.944C290.413 75.1013 292.632 78.728 294.168 82.824C295.704 86.8347 296.472 91.1867 296.472 95.88C296.472 97.0747 296.387 98.312 296.216 99.592C296.131 100.872 295.917 101.981 295.576 102.92H241.816V90.12H286.104L278.168 96.136C278.936 92.2107 278.723 88.712 277.528 85.64C276.419 82.568 274.541 80.136 271.896 78.344C269.336 76.552 266.221 75.656 262.552 75.656C259.053 75.656 255.939 76.552 253.208 78.344C250.477 80.0507 248.387 82.6107 246.936 86.024C245.571 89.352 245.059 93.4053 245.4 98.184C245.059 102.451 245.613 106.248 247.064 109.576C248.6 112.819 250.819 115.336 253.72 117.128C256.707 118.92 260.12 119.816 263.96 119.816C267.8 119.816 271.043 119.005 273.688 117.384C276.419 115.763 278.552 113.587 280.088 110.856L293.656 117.512C292.291 120.84 290.157 123.784 287.256 126.344C284.355 128.904 280.899 130.909 276.888 132.36C272.963 133.811 268.611 134.536 263.832 134.536Z" fill="white"/>
</svg>
